<svg width="741" height="233" viewBox="0 0 741 233" fill="none" xmlns="http://www.w3.org/2000/svg">
<path d="M0 117.5L741 89.5L621 233L13.5 188.5L0 117.5Z" fill="#FF0000"/>
<path d="M400.411 62.2608L389.099 59.2707L393.503 69.3374L386.997 64.4536L383.393 81.597L391.601 76.7131C385.195 96.6472 371.881 89.3713 371.881 89.3713C363.271 86.7798 363.972 73.723 370.98 73.723C377.987 73.723 376.485 83.9891 376.485 83.9891C380.89 83.092 386.146 72.6768 379.889 66.447C374.183 60.7657 367.876 64.8523 367.876 64.8523C372.982 52.7921 366.475 46.3135 366.475 46.3135C356.865 52.9914 359.367 63.9552 359.367 63.9552C359.367 63.9552 356.795 60.5313 351.994 60.8208C347.955 61.0648 345.21 65.6496 345.232 69.5368C345.261 74.9342 350.758 78.0088 350.758 78.0088C350.758 78.0088 350.158 75.3177 351.559 72.9256C353.542 69.5424 360.397 70.7344 359.868 78.2081C359.317 85.9825 350.858 86.7798 347.355 86.7798C343.749 86.7798 339.996 84.139 338.445 81.9956C335.755 78.2791 335.242 73.5236 335.242 73.5236L342.249 77.3111L341.849 60.6661L335.242 65.5499L338.645 53.4898H335.275H329.135H325.765L329.169 65.5499L322.562 60.6661L322.162 77.3111L329.169 73.5236C329.169 73.5236 328.656 78.2791 325.966 81.9956C324.414 84.139 320.662 86.7798 317.056 86.7798C313.552 86.7798 305.093 85.9825 304.543 78.2081C304.014 70.7344 310.87 69.5424 312.852 72.9256C314.253 75.3177 313.653 78.0088 313.653 78.0088C313.653 78.0088 319.15 74.9342 319.179 69.5368C319.2 65.6496 316.456 61.0648 312.417 60.8208C307.616 60.5313 305.043 63.9552 305.043 63.9552C305.043 63.9552 307.546 52.9914 297.936 46.3135C297.936 46.3135 291.429 52.7921 296.534 64.8523C296.534 64.8523 290.228 60.7657 284.522 66.447C278.265 72.6768 283.521 83.092 287.925 83.9891C287.925 83.9891 286.424 73.723 293.431 73.723C300.439 73.723 301.139 86.7798 292.53 89.3713C292.53 89.3713 279.216 96.6472 272.809 76.7131L281.018 81.597L277.414 64.4536L270.907 69.3374L275.312 59.2707L264 62.2608C264 62.2608 266.803 68.9388 266.302 70.7328C265.802 72.5269 265.046 74.8536 265.546 76.7474C266.047 78.6411 267.704 80.1019 268.805 81.0986C269.906 82.0953 271.408 88.9726 271.708 90.1686C272.008 91.3647 273.41 97.0459 271.208 105.817L280.317 114.389C280.317 114.389 297.235 106.016 331.972 105.917H332.439C367.176 106.016 384.093 114.389 384.093 114.389L393.203 105.817C391.001 97.0459 392.402 91.3647 392.703 90.1686C393.003 88.9726 394.505 82.0953 395.606 81.0986C396.707 80.1019 398.365 78.6411 398.865 76.7474C399.366 74.8536 398.609 72.5269 398.108 70.7328C397.608 68.9388 400.411 62.2608 400.411 62.2608ZM269.332 78.3301L267.206 76.3479L267.995 73.5675L270.121 75.5497L269.332 78.3301ZM277.704 107.443L274.421 104.383L275.64 100.089L278.923 103.149L277.704 107.443ZM285.523 97.7436C285.523 96.7525 286.329 95.9496 287.325 95.9496C288.32 95.9496 289.127 96.7525 289.127 97.7436C289.127 98.7348 288.32 99.5377 287.325 99.5377C286.329 99.5377 285.523 98.7348 285.523 97.7436ZM288.526 106.913C287.531 106.913 286.724 106.11 286.724 105.119C286.724 104.128 287.531 103.325 288.526 103.325C289.521 103.325 290.328 104.128 290.328 105.119C290.328 106.11 289.521 106.913 288.526 106.913ZM304.742 102.528C300.518 103.182 296.705 101.227 296.227 98.163C295.748 95.0988 298.785 92.0847 303.011 91.4317C307.235 90.7778 311.047 92.7322 311.525 95.7973C312.004 98.8607 308.967 101.875 304.742 102.528ZM316.355 92.3614C316.355 91.3703 317.162 90.5673 318.157 90.5673C319.153 90.5673 319.959 91.3703 319.959 92.3614C319.959 93.3525 319.153 94.1555 318.157 94.1555C317.162 94.1555 316.355 93.3525 316.355 92.3614ZM319.158 101.882C318.163 101.882 317.356 101.079 317.356 100.088C317.356 99.0968 318.163 98.2938 319.158 98.2938C320.154 98.2938 320.96 99.0968 320.96 100.088C320.96 101.079 320.154 101.882 319.158 101.882ZM332.206 68.3184C332.9 68.3184 333.462 68.879 333.462 69.5703C333.462 70.2616 332.9 70.8221 332.206 70.8221C331.511 70.8221 330.949 70.2616 330.949 69.5703C330.949 68.879 331.511 68.3184 332.206 68.3184ZM332.24 100.81L328.712 95.1043L332.167 89.3832L335.697 95.0876L332.24 100.81ZM345.252 101.882C344.258 101.882 343.45 101.079 343.45 100.088C343.45 99.0968 344.258 98.2938 345.252 98.2938C346.248 98.2938 347.054 99.0968 347.054 100.088C347.054 101.079 346.248 101.882 345.252 101.882ZM346.253 94.1555C345.259 94.1555 344.452 93.3525 344.452 92.3614C344.452 91.3703 345.259 90.5673 346.253 90.5673C347.249 90.5673 348.055 91.3703 348.055 92.3614C348.055 93.3525 347.249 94.1555 346.253 94.1555ZM368.185 98.1638C367.707 101.228 363.895 103.182 359.669 102.529C355.445 101.876 352.408 98.8607 352.886 95.7981C353.365 92.733 357.176 90.7786 361.401 91.4325C365.626 92.0855 368.663 95.0996 368.185 98.1638ZM375.885 106.913C374.89 106.913 374.083 106.11 374.083 105.119C374.083 104.128 374.89 103.325 375.885 103.325C376.88 103.325 377.687 104.128 377.687 105.119C377.687 106.11 376.88 106.913 375.885 106.913ZM377.086 99.5377C376.091 99.5377 375.284 98.7348 375.284 97.7436C375.284 96.7525 376.091 95.9496 377.086 95.9496C378.082 95.9496 378.888 96.7525 378.888 97.7436C378.888 98.7348 378.082 99.5377 377.086 99.5377ZM386.707 107.443L385.489 103.148L388.773 100.088L389.991 104.382L386.707 107.443ZM395.079 78.3301L394.291 75.5497L396.417 73.5675L397.206 76.3479L395.079 78.3301Z" fill="#FF0000"/>
<path d="M332.208 125.452C359.134 125.452 380.962 121.748 380.962 117.179C380.962 112.611 359.134 108.907 332.208 108.907C305.282 108.907 283.454 112.611 283.454 117.179C283.454 121.748 305.282 125.452 332.208 125.452Z" fill="#FF0000"/>
<path d="M279.445 58.4039L277.32 56.0182C301.082 35.0323 321.468 33.4822 322.325 33.4264L323.353 33.3594L323.841 34.2629C327.821 41.6417 328.663 50.5786 328.696 50.9557L325.506 51.2404C325.498 51.1583 324.755 43.3425 321.51 36.7275C317.139 37.3367 299.379 40.7981 279.445 58.4039Z" fill="#FF0000"/>
<path d="M319.359 32.2264C321.275 32.2264 322.829 30.6795 322.829 28.7714C322.829 26.8633 321.275 25.3164 319.359 25.3164C317.442 25.3164 315.888 26.8633 315.888 28.7714C315.888 30.6795 317.442 32.2264 319.359 32.2264Z" fill="#FF0000"/>
<path d="M310.416 34.2644C312.21 34.2644 313.664 32.8168 313.664 31.0311C313.664 29.2454 312.21 27.7978 310.416 27.7978C308.623 27.7978 307.169 29.2454 307.169 31.0311C307.169 32.8168 308.623 34.2644 310.416 34.2644Z" fill="#FF0000"/>
<path d="M302.141 37.2777C303.812 37.2777 305.167 35.929 305.167 34.2653C305.167 32.6015 303.812 31.2528 302.141 31.2528C300.47 31.2528 299.115 32.6015 299.115 34.2653C299.115 35.929 300.47 37.2777 302.141 37.2777Z" fill="#FF0000"/>
<path d="M294.799 40.7327C296.347 40.7327 297.602 39.4832 297.602 37.9419C297.602 36.4006 296.347 35.1511 294.799 35.1511C293.251 35.1511 291.996 36.4006 291.996 37.9419C291.996 39.4832 293.251 40.7327 294.799 40.7327Z" fill="#FF0000"/>
<path d="M287.592 45.1612C289.017 45.1612 290.172 44.011 290.172 42.5921C290.172 41.1732 289.017 40.023 287.592 40.023C286.167 40.023 285.012 41.1732 285.012 42.5921C285.012 44.011 286.167 45.1612 287.592 45.1612Z" fill="#FF0000"/>
<path d="M281.096 49.8577C282.398 49.8577 283.454 48.8064 283.454 47.5095C283.454 46.2126 282.398 45.1613 281.096 45.1613C279.793 45.1613 278.737 46.2126 278.737 47.5095C278.737 48.8064 279.793 49.8577 281.096 49.8577Z" fill="#FF0000"/>
<path d="M276.068 54.6866C277.248 54.6866 278.204 53.7345 278.204 52.56C278.204 51.3856 277.248 50.4335 276.068 50.4335C274.888 50.4335 273.932 51.3856 273.932 52.56C273.932 53.7345 274.888 54.6866 276.068 54.6866Z" fill="#FF0000"/>
<path d="M385.179 58.4039L387.305 56.0182C363.544 35.0323 343.157 33.4822 342.3 33.4264L341.272 33.3594L340.784 34.2629C336.805 41.6417 335.963 50.5786 335.93 50.9557L339.12 51.2404C339.128 51.1583 339.87 43.3425 343.115 36.7275C347.485 37.3367 365.246 40.7981 385.179 58.4039Z" fill="#FF0000"/>
<path d="M345.267 32.2264C347.183 32.2264 348.737 30.6795 348.737 28.7714C348.737 26.8633 347.183 25.3164 345.267 25.3164C343.35 25.3164 341.797 26.8633 341.797 28.7714C341.797 30.6795 343.35 32.2264 345.267 32.2264Z" fill="#FF0000"/>
<path d="M354.209 34.2652C356.003 34.2652 357.457 32.8173 357.457 31.0311C357.457 29.245 356.003 27.797 354.209 27.797C352.415 27.797 350.961 29.245 350.961 31.0311C350.961 32.8173 352.415 34.2652 354.209 34.2652Z" fill="#FF0000"/>
<path d="M362.484 37.2769C364.155 37.2769 365.509 35.9285 365.509 34.2653C365.509 32.602 364.155 31.2536 362.484 31.2536C360.814 31.2536 359.459 32.602 359.459 34.2653C359.459 35.9285 360.814 37.2769 362.484 37.2769Z" fill="#FF0000"/>
<path d="M332.203 39.0869C333.873 39.0869 335.227 37.7385 335.227 36.0753C335.227 34.412 333.873 33.0636 332.203 33.0636C330.532 33.0636 329.178 34.412 329.178 36.0753C329.178 37.7385 330.532 39.0869 332.203 39.0869Z" fill="#FF0000"/>
<path d="M369.826 40.7327C371.374 40.7327 372.629 39.4832 372.629 37.9419C372.629 36.4006 371.374 35.1511 369.826 35.1511C368.278 35.1511 367.023 36.4006 367.023 37.9419C367.023 39.4832 368.278 40.7327 369.826 40.7327Z" fill="#FF0000"/>
<path d="M377.033 45.1612C378.458 45.1612 379.614 44.011 379.614 42.5921C379.614 41.1732 378.458 40.023 377.033 40.023C375.608 40.023 374.453 41.1732 374.453 42.5921C374.453 44.011 375.608 45.1612 377.033 45.1612Z" fill="#FF0000"/>
<path d="M332.203 45.9786C333.628 45.9786 334.784 44.8283 334.784 43.4094C334.784 41.9906 333.628 40.8403 332.203 40.8403C330.778 40.8403 329.623 41.9906 329.623 43.4094C329.623 44.8283 330.778 45.9786 332.203 45.9786Z" fill="#FF0000"/>
<path d="M383.529 49.8569C384.831 49.8569 385.887 48.806 385.887 47.5095C385.887 46.213 384.831 45.162 383.529 45.162C382.227 45.162 381.171 46.213 381.171 47.5095C381.171 48.806 382.227 49.8569 383.529 49.8569Z" fill="#FF0000"/>
<path d="M388.557 54.6866C389.737 54.6866 390.693 53.7345 390.693 52.56C390.693 51.3856 389.737 50.4335 388.557 50.4335C387.378 50.4335 386.422 51.3856 386.422 52.56C386.422 53.7345 387.378 54.6866 388.557 54.6866Z" fill="#FF0000"/>
<path d="M332.203 51.9843C333.383 51.9843 334.339 51.0322 334.339 49.8577C334.339 48.6832 333.383 47.7311 332.203 47.7311C331.024 47.7311 330.068 48.6832 330.068 49.8577C330.068 51.0322 331.024 51.9843 332.203 51.9843Z" fill="#FF0000"/>
<path d="M333.926 16.4417V12.0267L339.554 14.4794V4.58486L333.851 7.90749L337.358 0H327.047L330.554 7.90749L324.85 4.58486V14.4794L330.478 12.0267V16.4417C327.146 17.2191 324.662 20.1909 324.662 23.7456C324.662 27.8919 328.037 31.2536 332.203 31.2536C336.367 31.2536 339.743 27.8919 339.743 23.7456C339.743 20.1901 337.259 17.2191 333.926 16.4417ZM331.402 18.8043V22.7911L328.377 21.1964L331.402 18.8043ZM327.895 26.8513C327.895 26.8513 332.224 25.1832 336.176 28.0538C336.176 28.0538 329.722 31.2376 327.895 26.8513ZM333.983 22.7911V18.8043L336.977 20.7977L333.983 22.7911Z" fill="#FF0000"/>
<path d="M146.167 163.354C145.021 164.983 143.221 166.254 140.769 167.167C138.334 168.081 135.603 168.537 132.578 168.537C129.516 168.537 126.795 167.803 124.414 166.335C122.032 164.867 120.188 162.79 118.881 160.104C117.574 157.419 116.912 154.34 116.894 150.866V145.925C116.894 140.5 118.264 136.221 121.003 133.088C123.742 129.937 127.421 128.361 132.041 128.361C136.069 128.361 139.309 129.391 141.762 131.45C144.215 133.491 145.674 136.311 146.14 139.909H142.836C142.353 137.045 141.18 134.878 139.318 133.41C137.474 131.924 135.057 131.181 132.067 131.181C128.415 131.181 125.524 132.479 123.393 135.075C121.263 137.671 120.197 141.333 120.197 146.059V150.678C120.197 153.65 120.699 156.282 121.701 158.574C122.722 160.847 124.172 162.611 126.052 163.864C127.95 165.118 130.125 165.744 132.578 165.744C135.424 165.744 137.868 165.297 139.909 164.401C141.234 163.811 142.219 163.121 142.863 162.333V152.236H132.363V149.443H146.167V163.354ZM176.647 157.043H158.896L154.868 168H151.403L166.201 128.898H169.343L184.14 168H180.703L176.647 157.043ZM159.917 154.223H175.6L167.758 132.927L159.917 154.223ZM193.244 165.207H212.553V168H189.914V128.898H193.244V165.207ZM240.51 149.255H222.221V165.207H243.249V168H218.918V128.898H243.115V131.718H222.221V146.462H240.51V149.255ZM264.841 151.726H253.481V168H250.151V128.898H262.854C267.025 128.898 270.284 129.91 272.629 131.933C274.974 133.956 276.147 136.785 276.147 140.419C276.147 142.926 275.413 145.137 273.945 147.053C272.477 148.968 270.507 150.293 268.037 151.027L277.812 167.651V168H274.294L264.841 151.726ZM253.481 148.906H263.605C266.381 148.906 268.61 148.118 270.292 146.542C271.975 144.967 272.817 142.926 272.817 140.419C272.817 137.662 271.94 135.523 270.185 134.001C268.431 132.479 265.969 131.718 262.8 131.718H253.481V148.906ZM289.172 168H285.869V128.898H289.172V168ZM321.398 149.255H303.11V165.207H324.138V168H299.807V128.898H324.003V131.718H303.11V146.462H321.398V149.255ZM344.494 168V128.898H355.424C358.629 128.898 361.503 129.632 364.045 131.101C366.587 132.551 368.566 134.637 369.98 137.358C371.412 140.079 372.128 143.177 372.128 146.65V150.249C372.128 153.74 371.421 156.837 370.007 159.541C368.592 162.244 366.596 164.33 364.018 165.798C361.458 167.266 358.513 168 355.183 168H344.494ZM347.797 131.718V165.207H355.209C359.327 165.207 362.631 163.846 365.119 161.125C367.608 158.386 368.852 154.689 368.852 150.034V146.596C368.852 142.102 367.626 138.504 365.173 135.8C362.72 133.097 359.488 131.736 355.478 131.718H347.797ZM379.165 138.486L377.258 137.089C378.869 134.923 379.702 132.649 379.755 130.268V126.75H382.924V129.462C382.924 133.204 381.671 136.212 379.165 138.486ZM397.426 168H389.37V128.898H397.426V168ZM415.446 128.898L425.49 157.258L435.48 128.898H446.062V168H437.978V157.312L438.784 138.862L428.229 168H422.697L412.17 138.889L412.976 157.312V168H404.919V128.898H415.446ZM475.656 159.943H461.53L458.845 168H450.278L464.833 128.898H472.299L486.936 168H478.369L475.656 159.943ZM463.706 153.417H473.481L468.566 138.781L463.706 153.417ZM520.935 163.059C519.484 164.795 517.434 166.147 514.785 167.114C512.135 168.063 509.199 168.537 505.976 168.537C502.592 168.537 499.62 167.803 497.06 166.335C494.518 164.849 492.548 162.701 491.152 159.89C489.773 157.079 489.066 153.776 489.03 149.98V147.321C489.03 143.418 489.684 140.043 490.991 137.197C492.316 134.332 494.213 132.148 496.684 130.644C499.173 129.122 502.082 128.361 505.412 128.361C510.049 128.361 513.675 129.471 516.289 131.691C518.903 133.894 520.451 137.107 520.935 141.333H513.093C512.735 139.095 511.938 137.456 510.703 136.418C509.485 135.38 507.802 134.86 505.654 134.86C502.915 134.86 500.829 135.89 499.396 137.949C497.964 140.008 497.239 143.069 497.221 147.133V149.631C497.221 153.731 498 156.828 499.558 158.923C501.115 161.018 503.398 162.065 506.406 162.065C509.431 162.065 511.589 161.42 512.878 160.131V153.391H505.546V147.456H520.935V163.059ZM551.013 151.054H535.544V161.528H553.698V168H527.487V128.898H553.645V135.424H535.544V144.743H551.013V151.054ZM578.701 157.741C578.701 156.219 578.164 155.056 577.089 154.25C576.015 153.426 574.082 152.567 571.289 151.672C568.496 150.759 566.285 149.864 564.655 148.986C560.215 146.587 557.995 143.356 557.995 139.292C557.995 137.179 558.586 135.299 559.768 133.652C560.967 131.987 562.677 130.689 564.897 129.758C567.135 128.827 569.641 128.361 572.417 128.361C575.209 128.361 577.698 128.872 579.882 129.892C582.067 130.895 583.758 132.318 584.958 134.162C586.175 136.006 586.784 138.101 586.784 140.446H578.728C578.728 138.656 578.164 137.268 577.036 136.284C575.908 135.281 574.323 134.78 572.282 134.78C570.313 134.78 568.782 135.201 567.69 136.042C566.598 136.866 566.052 137.958 566.052 139.318C566.052 140.59 566.687 141.655 567.958 142.514C569.248 143.374 571.136 144.179 573.625 144.931C578.208 146.31 581.547 148.02 583.642 150.061C585.737 152.102 586.784 154.644 586.784 157.688C586.784 161.071 585.504 163.73 582.944 165.664C580.384 167.579 576.937 168.537 572.604 168.537C569.597 168.537 566.857 167.991 564.387 166.899C561.916 165.789 560.027 164.276 558.72 162.36C557.431 160.445 556.787 158.225 556.787 155.7H564.87C564.87 160.015 567.448 162.172 572.604 162.172C574.52 162.172 576.015 161.787 577.089 161.018C578.164 160.23 578.701 159.138 578.701 157.741Z" fill="white"/>
</svg>
