<svg width="741" height="233" viewBox="0 0 741 233" fill="none" xmlns="http://www.w3.org/2000/svg">
<path d="M0 117.5L741 89.5L621 233L13.5 188.5L0 117.5Z" fill="#FF0000"/>
<path d="M400.411 62.2608L389.099 59.2707L393.503 69.3374L386.997 64.4536L383.393 81.597L391.601 76.7131C385.195 96.6472 371.881 89.3713 371.881 89.3713C363.271 86.7798 363.972 73.723 370.98 73.723C377.987 73.723 376.485 83.9891 376.485 83.9891C380.89 83.092 386.146 72.6768 379.889 66.447C374.183 60.7657 367.876 64.8523 367.876 64.8523C372.982 52.7921 366.475 46.3135 366.475 46.3135C356.865 52.9914 359.367 63.9552 359.367 63.9552C359.367 63.9552 356.795 60.5313 351.994 60.8208C347.955 61.0648 345.21 65.6496 345.232 69.5368C345.261 74.9342 350.758 78.0088 350.758 78.0088C350.758 78.0088 350.158 75.3177 351.559 72.9256C353.542 69.5424 360.397 70.7344 359.868 78.2081C359.317 85.9825 350.858 86.7798 347.355 86.7798C343.749 86.7798 339.996 84.139 338.445 81.9956C335.755 78.2791 335.242 73.5236 335.242 73.5236L342.249 77.3111L341.849 60.6661L335.242 65.5499L338.645 53.4898H335.275H329.135H325.765L329.169 65.5499L322.562 60.6661L322.162 77.3111L329.169 73.5236C329.169 73.5236 328.656 78.2791 325.966 81.9956C324.414 84.139 320.662 86.7798 317.056 86.7798C313.552 86.7798 305.093 85.9825 304.543 78.2081C304.014 70.7344 310.87 69.5424 312.852 72.9256C314.253 75.3177 313.653 78.0088 313.653 78.0088C313.653 78.0088 319.15 74.9342 319.179 69.5368C319.2 65.6496 316.456 61.0648 312.417 60.8208C307.616 60.5313 305.043 63.9552 305.043 63.9552C305.043 63.9552 307.546 52.9914 297.936 46.3135C297.936 46.3135 291.429 52.7921 296.534 64.8523C296.534 64.8523 290.228 60.7657 284.522 66.447C278.265 72.6768 283.521 83.092 287.925 83.9891C287.925 83.9891 286.424 73.723 293.431 73.723C300.439 73.723 301.139 86.7798 292.53 89.3713C292.53 89.3713 279.216 96.6472 272.809 76.7131L281.018 81.597L277.414 64.4536L270.907 69.3374L275.312 59.2707L264 62.2608C264 62.2608 266.803 68.9388 266.302 70.7328C265.802 72.5269 265.046 74.8536 265.546 76.7474C266.047 78.6411 267.704 80.1019 268.805 81.0986C269.906 82.0953 271.408 88.9726 271.708 90.1686C272.008 91.3647 273.41 97.0459 271.208 105.817L280.317 114.389C280.317 114.389 297.235 106.016 331.972 105.917H332.439C367.176 106.016 384.093 114.389 384.093 114.389L393.203 105.817C391.001 97.0459 392.402 91.3647 392.703 90.1686C393.003 88.9726 394.505 82.0953 395.606 81.0986C396.707 80.1019 398.365 78.6411 398.865 76.7474C399.366 74.8536 398.609 72.5269 398.108 70.7328C397.608 68.9388 400.411 62.2608 400.411 62.2608ZM269.332 78.3301L267.206 76.3479L267.995 73.5675L270.121 75.5497L269.332 78.3301ZM277.704 107.443L274.421 104.383L275.64 100.089L278.923 103.149L277.704 107.443ZM285.523 97.7436C285.523 96.7525 286.329 95.9496 287.325 95.9496C288.32 95.9496 289.127 96.7525 289.127 97.7436C289.127 98.7348 288.32 99.5377 287.325 99.5377C286.329 99.5377 285.523 98.7348 285.523 97.7436ZM288.526 106.913C287.531 106.913 286.724 106.11 286.724 105.119C286.724 104.128 287.531 103.325 288.526 103.325C289.521 103.325 290.328 104.128 290.328 105.119C290.328 106.11 289.521 106.913 288.526 106.913ZM304.742 102.528C300.518 103.182 296.705 101.227 296.227 98.163C295.748 95.0988 298.785 92.0847 303.011 91.4317C307.235 90.7778 311.047 92.7322 311.525 95.7973C312.004 98.8607 308.967 101.875 304.742 102.528ZM316.355 92.3614C316.355 91.3703 317.162 90.5673 318.157 90.5673C319.153 90.5673 319.959 91.3703 319.959 92.3614C319.959 93.3525 319.153 94.1555 318.157 94.1555C317.162 94.1555 316.355 93.3525 316.355 92.3614ZM319.158 101.882C318.163 101.882 317.356 101.079 317.356 100.088C317.356 99.0968 318.163 98.2938 319.158 98.2938C320.154 98.2938 320.96 99.0968 320.96 100.088C320.96 101.079 320.154 101.882 319.158 101.882ZM332.206 68.3184C332.9 68.3184 333.462 68.879 333.462 69.5703C333.462 70.2616 332.9 70.8221 332.206 70.8221C331.511 70.8221 330.949 70.2616 330.949 69.5703C330.949 68.879 331.511 68.3184 332.206 68.3184ZM332.24 100.81L328.712 95.1043L332.167 89.3832L335.697 95.0876L332.24 100.81ZM345.252 101.882C344.258 101.882 343.45 101.079 343.45 100.088C343.45 99.0968 344.258 98.2938 345.252 98.2938C346.248 98.2938 347.054 99.0968 347.054 100.088C347.054 101.079 346.248 101.882 345.252 101.882ZM346.253 94.1555C345.259 94.1555 344.452 93.3525 344.452 92.3614C344.452 91.3703 345.259 90.5673 346.253 90.5673C347.249 90.5673 348.055 91.3703 348.055 92.3614C348.055 93.3525 347.249 94.1555 346.253 94.1555ZM368.185 98.1638C367.707 101.228 363.895 103.182 359.669 102.529C355.445 101.876 352.408 98.8607 352.886 95.7981C353.365 92.733 357.176 90.7786 361.401 91.4325C365.626 92.0855 368.663 95.0996 368.185 98.1638ZM375.885 106.913C374.89 106.913 374.083 106.11 374.083 105.119C374.083 104.128 374.89 103.325 375.885 103.325C376.88 103.325 377.687 104.128 377.687 105.119C377.687 106.11 376.88 106.913 375.885 106.913ZM377.086 99.5377C376.091 99.5377 375.284 98.7348 375.284 97.7436C375.284 96.7525 376.091 95.9496 377.086 95.9496C378.082 95.9496 378.888 96.7525 378.888 97.7436C378.888 98.7348 378.082 99.5377 377.086 99.5377ZM386.707 107.443L385.489 103.148L388.773 100.088L389.991 104.382L386.707 107.443ZM395.079 78.3301L394.291 75.5497L396.417 73.5675L397.206 76.3479L395.079 78.3301Z" fill="#FF0000"/>
<path d="M332.208 125.452C359.134 125.452 380.962 121.748 380.962 117.179C380.962 112.611 359.134 108.907 332.208 108.907C305.282 108.907 283.454 112.611 283.454 117.179C283.454 121.748 305.282 125.452 332.208 125.452Z" fill="#FF0000"/>
<path d="M279.445 58.4039L277.32 56.0181C301.082 35.0322 321.468 33.4822 322.325 33.4264L323.353 33.3594L323.841 34.2628C327.821 41.6416 328.663 50.5785 328.696 50.9557L325.506 51.2403C325.498 51.1582 324.755 43.3424 321.51 36.7275C317.139 37.3366 299.379 40.798 279.445 58.4039Z" fill="#FF0000"/>
<path d="M319.359 32.2264C321.275 32.2264 322.829 30.6795 322.829 28.7714C322.829 26.8633 321.275 25.3164 319.359 25.3164C317.442 25.3164 315.889 26.8633 315.889 28.7714C315.889 30.6795 317.442 32.2264 319.359 32.2264Z" fill="#FF0000"/>
<path d="M310.416 34.2645C312.21 34.2645 313.664 32.8169 313.664 31.0312C313.664 29.2455 312.21 27.7979 310.416 27.7979C308.623 27.7979 307.169 29.2455 307.169 31.0312C307.169 32.8169 308.623 34.2645 310.416 34.2645Z" fill="#FF0000"/>
<path d="M302.141 37.2777C303.812 37.2777 305.167 35.929 305.167 34.2653C305.167 32.6015 303.812 31.2528 302.141 31.2528C300.47 31.2528 299.116 32.6015 299.116 34.2653C299.116 35.929 300.47 37.2777 302.141 37.2777Z" fill="#FF0000"/>
<path d="M294.799 40.7327C296.347 40.7327 297.602 39.4832 297.602 37.9419C297.602 36.4006 296.347 35.1511 294.799 35.1511C293.251 35.1511 291.996 36.4006 291.996 37.9419C291.996 39.4832 293.251 40.7327 294.799 40.7327Z" fill="#FF0000"/>
<path d="M287.592 45.1613C289.017 45.1613 290.172 44.0111 290.172 42.5922C290.172 41.1733 289.017 40.0231 287.592 40.0231C286.167 40.0231 285.012 41.1733 285.012 42.5922C285.012 44.0111 286.167 45.1613 287.592 45.1613Z" fill="#FF0000"/>
<path d="M281.096 49.8577C282.398 49.8577 283.454 48.8064 283.454 47.5095C283.454 46.2126 282.398 45.1613 281.096 45.1613C279.793 45.1613 278.737 46.2126 278.737 47.5095C278.737 48.8064 279.793 49.8577 281.096 49.8577Z" fill="#FF0000"/>
<path d="M276.068 54.6866C277.248 54.6866 278.204 53.7345 278.204 52.56C278.204 51.3856 277.248 50.4335 276.068 50.4335C274.888 50.4335 273.932 51.3856 273.932 52.56C273.932 53.7345 274.888 54.6866 276.068 54.6866Z" fill="#FF0000"/>
<path d="M385.179 58.4039L387.305 56.0181C363.544 35.0322 343.157 33.4822 342.3 33.4264L341.272 33.3594L340.784 34.2628C336.805 41.6416 335.963 50.5785 335.93 50.9557L339.12 51.2403C339.128 51.1582 339.87 43.3424 343.115 36.7275C347.485 37.3366 365.246 40.798 385.179 58.4039Z" fill="#FF0000"/>
<path d="M345.267 32.2264C347.183 32.2264 348.737 30.6795 348.737 28.7714C348.737 26.8633 347.183 25.3164 345.267 25.3164C343.35 25.3164 341.797 26.8633 341.797 28.7714C341.797 30.6795 343.35 32.2264 345.267 32.2264Z" fill="#FF0000"/>
<path d="M354.209 34.2652C356.003 34.2652 357.457 32.8173 357.457 31.0311C357.457 29.245 356.003 27.797 354.209 27.797C352.415 27.797 350.961 29.245 350.961 31.0311C350.961 32.8173 352.415 34.2652 354.209 34.2652Z" fill="#FF0000"/>
<path d="M362.484 37.2768C364.155 37.2768 365.509 35.9285 365.509 34.2652C365.509 32.6019 364.155 31.2535 362.484 31.2535C360.814 31.2535 359.459 32.6019 359.459 34.2652C359.459 35.9285 360.814 37.2768 362.484 37.2768Z" fill="#FF0000"/>
<path d="M332.203 39.0869C333.873 39.0869 335.227 37.7385 335.227 36.0753C335.227 34.412 333.873 33.0636 332.203 33.0636C330.532 33.0636 329.178 34.412 329.178 36.0753C329.178 37.7385 330.532 39.0869 332.203 39.0869Z" fill="#FF0000"/>
<path d="M369.826 40.7327C371.374 40.7327 372.629 39.4832 372.629 37.9419C372.629 36.4006 371.374 35.1511 369.826 35.1511C368.278 35.1511 367.023 36.4006 367.023 37.9419C367.023 39.4832 368.278 40.7327 369.826 40.7327Z" fill="#FF0000"/>
<path d="M377.033 45.1613C378.458 45.1613 379.614 44.0111 379.614 42.5922C379.614 41.1733 378.458 40.0231 377.033 40.0231C375.608 40.0231 374.453 41.1733 374.453 42.5922C374.453 44.0111 375.608 45.1613 377.033 45.1613Z" fill="#FF0000"/>
<path d="M332.203 45.9786C333.628 45.9786 334.784 44.8283 334.784 43.4094C334.784 41.9906 333.628 40.8403 332.203 40.8403C330.778 40.8403 329.623 41.9906 329.623 43.4094C329.623 44.8283 330.778 45.9786 332.203 45.9786Z" fill="#FF0000"/>
<path d="M383.529 49.857C384.831 49.857 385.887 48.806 385.887 47.5096C385.887 46.2131 384.831 45.1621 383.529 45.1621C382.227 45.1621 381.171 46.2131 381.171 47.5096C381.171 48.806 382.227 49.857 383.529 49.857Z" fill="#FF0000"/>
<path d="M388.557 54.6866C389.737 54.6866 390.693 53.7345 390.693 52.56C390.693 51.3856 389.737 50.4335 388.557 50.4335C387.378 50.4335 386.422 51.3856 386.422 52.56C386.422 53.7345 387.378 54.6866 388.557 54.6866Z" fill="#FF0000"/>
<path d="M332.203 51.9844C333.383 51.9844 334.339 51.0323 334.339 49.8578C334.339 48.6833 333.383 47.7312 332.203 47.7312C331.024 47.7312 330.068 48.6833 330.068 49.8578C330.068 51.0323 331.024 51.9844 332.203 51.9844Z" fill="#FF0000"/>
<path d="M333.926 16.4417V12.0267L339.554 14.4794V4.58486L333.851 7.90749L337.358 0H327.047L330.554 7.90749L324.85 4.58486V14.4794L330.478 12.0267V16.4417C327.146 17.2191 324.662 20.1909 324.662 23.7456C324.662 27.8919 328.037 31.2536 332.203 31.2536C336.367 31.2536 339.743 27.8919 339.743 23.7456C339.743 20.1901 337.259 17.2191 333.926 16.4417ZM331.402 18.8043V22.7911L328.377 21.1964L331.402 18.8043ZM327.895 26.8513C327.895 26.8513 332.224 25.1832 336.176 28.0538C336.176 28.0538 329.722 31.2376 327.895 26.8513ZM333.983 22.7911V18.8043L336.977 20.7977L333.983 22.7911Z" fill="#FF0000"/>
<path d="M72.75 148.583L67.2446 154.008V168H63.9414V128.898H67.2446V149.98L87.2788 128.898H91.4414L75.0596 146.301L92.7036 168H88.6753L72.75 148.583ZM120.23 149.255H101.942V165.207H122.97V168H98.6387V128.898H122.835V131.718H101.942V146.462H120.23V149.255ZM151.544 149.255H133.255V165.207H154.283V168H129.952V128.898H154.149V131.718H133.255V146.462H151.544V149.255ZM164.569 152.075V168H161.266V128.898H174.586C178.65 128.898 181.855 129.937 184.2 132.014C186.563 134.09 187.745 136.946 187.745 140.581C187.745 144.251 186.608 147.089 184.334 149.094C182.079 151.081 178.802 152.075 174.505 152.075H164.569ZM164.569 149.282H174.586C177.791 149.282 180.235 148.521 181.917 146.999C183.6 145.477 184.442 143.356 184.442 140.634C184.442 137.931 183.6 135.782 181.917 134.189C180.252 132.578 177.88 131.754 174.801 131.718H164.569V149.282ZM236.219 155.808C235.772 159.925 234.295 163.076 231.788 165.261C229.299 167.445 225.978 168.537 221.825 168.537C218.924 168.537 216.355 167.812 214.117 166.362C211.897 164.912 210.178 162.862 208.961 160.212C207.743 157.544 207.126 154.501 207.108 151.081V146.005C207.108 142.532 207.717 139.453 208.934 136.767C210.152 134.082 211.897 132.014 214.171 130.563C216.463 129.095 219.094 128.361 222.066 128.361C226.256 128.361 229.559 129.498 231.976 131.772C234.411 134.028 235.825 137.152 236.219 141.145H232.889C232.066 134.502 228.458 131.181 222.066 131.181C218.521 131.181 215.693 132.506 213.58 135.156C211.485 137.806 210.438 141.467 210.438 146.14V150.92C210.438 155.432 211.458 159.03 213.5 161.716C215.558 164.401 218.333 165.744 221.825 165.744C225.28 165.744 227.885 164.921 229.64 163.273C231.394 161.608 232.477 159.12 232.889 155.808H236.219ZM265.357 157.043H247.606L243.578 168H240.113L254.911 128.898H258.053L272.85 168H269.413L265.357 157.043ZM248.626 154.223H264.31L256.468 132.927L248.626 154.223ZM281.954 165.207H301.263V168H278.624V128.898H281.954V165.207ZM312.005 128.898L326.427 163.408L340.902 128.898H345.306V168H342.003V150.974L342.271 133.518L327.716 168H325.165L310.663 133.652L310.931 150.866V168H307.628V128.898H312.005ZM389.698 157.043H371.947L367.918 168H364.454L379.251 128.898H382.394L397.191 168H393.753L389.698 157.043ZM372.967 154.223H388.651L380.809 132.927L372.967 154.223ZM432.076 168H428.773L406.295 134.538V168H402.965V128.898H406.295L428.8 162.387V128.898H432.076V168ZM442.013 168V128.898H452.943C456.148 128.898 459.021 129.632 461.563 131.101C464.106 132.551 466.084 134.637 467.499 137.358C468.931 140.079 469.647 143.177 469.647 146.65V150.249C469.647 153.74 468.94 156.837 467.525 159.541C466.111 162.244 464.115 164.33 461.537 165.798C458.976 167.266 456.031 168 452.701 168H442.013ZM445.316 131.718V165.207H452.728C456.846 165.207 460.149 163.846 462.638 161.125C465.126 158.386 466.371 154.689 466.371 150.034V146.596C466.371 142.102 465.144 138.504 462.691 135.8C460.239 133.097 457.007 131.736 452.997 131.718H445.316ZM504.72 153.686H498.302V168H490.245V128.898H504.774C509.393 128.898 512.956 129.928 515.462 131.987C517.969 134.046 519.222 136.955 519.222 140.715C519.222 143.382 518.64 145.611 517.477 147.402C516.331 149.174 514.585 150.589 512.24 151.645L520.699 167.624V168H512.052L504.72 153.686ZM498.302 147.16H504.801C506.824 147.16 508.39 146.65 509.5 145.629C510.611 144.591 511.166 143.168 511.166 141.359C511.166 139.515 510.637 138.065 509.581 137.009C508.543 135.952 506.94 135.424 504.774 135.424H498.302V147.16ZM533.939 168H525.882V128.898H533.939V168ZM541.432 168V128.898H553.463C556.9 128.898 559.971 129.677 562.674 131.235C565.396 132.775 567.517 134.977 569.039 137.841C570.561 140.688 571.322 143.929 571.322 147.563V149.362C571.322 152.997 570.57 156.228 569.066 159.057C567.58 161.886 565.476 164.079 562.755 165.637C560.034 167.194 556.963 167.982 553.543 168H541.432ZM549.488 135.424V161.528H553.382C556.533 161.528 558.941 160.498 560.606 158.439C562.271 156.381 563.122 153.435 563.158 149.604V147.536C563.158 143.562 562.334 140.554 560.687 138.513C559.04 136.454 556.632 135.424 553.463 135.424H549.488ZM600.729 151.054H585.26V161.528H603.414V168H577.203V128.898H603.36V135.424H585.26V144.743H600.729V151.054Z" fill="white"/>
</svg>
