<svg width="177" height="182" viewBox="0 0 177 182" fill="none" xmlns="http://www.w3.org/2000/svg">
<g clip-path="url(#clip0)">
<path d="M138.7 0H37.8C37.8 0 0 0 0 37.8V143.7C0 143.7 0 181.5 37.8 181.5H138.7C138.7 181.5 176.5 181.5 176.5 143.7V37.8C176.6 37.8 176.6 0 138.7 0ZM117.1 94.9H97.7L97.9 163.5H70.5L69.3 94.7H56.1L56.3 71.8L70.3 71.7L69.9 53.7C69.9 53.7 62.9 20.4 119.2 27.1L118.6 50.9C118.6 50.9 102 49.9 99.6 52.1L98.4 71.6H119.6L117.1 94.9Z" fill="#E52421"/>
</g>
<defs>
<clipPath id="clip0">
<rect width="176.6" height="181.6" fill="white"/>
</clipPath>
</defs>
</svg>
