<svg width="51" height="51" viewBox="0 0 51 51" fill="none" xmlns="http://www.w3.org/2000/svg">
<path d="M48.1854 51C49.7396 51 51 49.7396 51 48.185V2.81479C51 1.25997 49.7398 0 48.1854 0H2.81481C1.25998 0 0 1.25997 0 2.81479V48.185C0 49.7394 1.25978 51 2.81481 51H48.1854Z" fill="#3C5A99"/>
<path d="M35.1892 51V31.25H41.8183L42.811 23.553H35.1892V18.639C35.1892 16.4106 35.808 14.892 39.0035 14.892L43.0793 14.8902V8.006C42.3744 7.9122 39.955 7.70264 37.1402 7.70264C31.2638 7.70264 27.2407 11.2896 27.2407 17.8768V23.553H20.5945V31.25H27.2407V51H35.1892Z" fill="white"/>
</svg>
