<svg width="741" height="233" viewBox="0 0 741 233" fill="none" xmlns="http://www.w3.org/2000/svg">
<path d="M0 117.5L741 89.5L621 233L13.5 188.5L0 117.5Z" fill="#FF0000"/>
<path d="M427.411 62.2608L416.099 59.2707L420.503 69.3374L413.997 64.4536L410.393 81.597L418.601 76.7131C412.195 96.6472 398.881 89.3713 398.881 89.3713C390.271 86.7798 390.972 73.723 397.98 73.723C404.987 73.723 403.485 83.9891 403.485 83.9891C407.89 83.092 413.146 72.6768 406.889 66.447C401.183 60.7657 394.876 64.8523 394.876 64.8523C399.982 52.7921 393.475 46.3135 393.475 46.3135C383.865 52.9914 386.367 63.9552 386.367 63.9552C386.367 63.9552 383.795 60.5313 378.994 60.8208C374.955 61.0648 372.21 65.6496 372.232 69.5368C372.261 74.9342 377.758 78.0088 377.758 78.0088C377.758 78.0088 377.158 75.3177 378.559 72.9256C380.542 69.5424 387.397 70.7344 386.868 78.2081C386.317 85.9825 377.858 86.7798 374.355 86.7798C370.749 86.7798 366.996 84.139 365.445 81.9956C362.755 78.2791 362.242 73.5236 362.242 73.5236L369.249 77.3111L368.849 60.6661L362.242 65.5499L365.645 53.4898H362.275H356.135H352.765L356.169 65.5499L349.562 60.6661L349.162 77.3111L356.169 73.5236C356.169 73.5236 355.656 78.2791 352.966 81.9956C351.414 84.139 347.662 86.7798 344.056 86.7798C340.552 86.7798 332.093 85.9825 331.543 78.2081C331.014 70.7344 337.87 69.5424 339.852 72.9256C341.253 75.3177 340.653 78.0088 340.653 78.0088C340.653 78.0088 346.15 74.9342 346.179 69.5368C346.2 65.6496 343.456 61.0648 339.417 60.8208C334.616 60.5313 332.043 63.9552 332.043 63.9552C332.043 63.9552 334.546 52.9914 324.936 46.3135C324.936 46.3135 318.429 52.7921 323.534 64.8523C323.534 64.8523 317.228 60.7657 311.522 66.447C305.265 72.6768 310.521 83.092 314.925 83.9891C314.925 83.9891 313.424 73.723 320.431 73.723C327.439 73.723 328.139 86.7798 319.53 89.3713C319.53 89.3713 306.216 96.6472 299.809 76.7131L308.018 81.597L304.414 64.4536L297.907 69.3374L302.312 59.2707L291 62.2608C291 62.2608 293.803 68.9388 293.302 70.7328C292.802 72.5269 292.046 74.8536 292.546 76.7474C293.047 78.6411 294.704 80.1019 295.805 81.0986C296.906 82.0953 298.408 88.9726 298.708 90.1686C299.008 91.3647 300.41 97.0459 298.208 105.817L307.317 114.389C307.317 114.389 324.235 106.016 358.972 105.917H359.439C394.176 106.016 411.093 114.389 411.093 114.389L420.203 105.817C418.001 97.0459 419.402 91.3647 419.703 90.1686C420.003 88.9726 421.505 82.0953 422.606 81.0986C423.707 80.1019 425.365 78.6411 425.865 76.7474C426.366 74.8536 425.609 72.5269 425.108 70.7328C424.608 68.9388 427.411 62.2608 427.411 62.2608ZM296.332 78.3301L294.206 76.3479L294.995 73.5675L297.121 75.5497L296.332 78.3301ZM304.704 107.443L301.421 104.383L302.64 100.089L305.923 103.149L304.704 107.443ZM312.523 97.7436C312.523 96.7525 313.329 95.9496 314.325 95.9496C315.32 95.9496 316.127 96.7525 316.127 97.7436C316.127 98.7348 315.32 99.5377 314.325 99.5377C313.329 99.5377 312.523 98.7348 312.523 97.7436ZM315.526 106.913C314.531 106.913 313.724 106.11 313.724 105.119C313.724 104.128 314.531 103.325 315.526 103.325C316.521 103.325 317.328 104.128 317.328 105.119C317.328 106.11 316.521 106.913 315.526 106.913ZM331.742 102.528C327.518 103.182 323.705 101.227 323.227 98.163C322.748 95.0988 325.785 92.0847 330.011 91.4317C334.235 90.7778 338.047 92.7322 338.525 95.7973C339.004 98.8607 335.967 101.875 331.742 102.528ZM343.355 92.3614C343.355 91.3703 344.162 90.5673 345.157 90.5673C346.153 90.5673 346.959 91.3703 346.959 92.3614C346.959 93.3525 346.153 94.1555 345.157 94.1555C344.162 94.1555 343.355 93.3525 343.355 92.3614ZM346.158 101.882C345.163 101.882 344.356 101.079 344.356 100.088C344.356 99.0968 345.163 98.2938 346.158 98.2938C347.154 98.2938 347.96 99.0968 347.96 100.088C347.96 101.079 347.154 101.882 346.158 101.882ZM359.206 68.3184C359.9 68.3184 360.462 68.879 360.462 69.5703C360.462 70.2616 359.9 70.8221 359.206 70.8221C358.511 70.8221 357.949 70.2616 357.949 69.5703C357.949 68.879 358.511 68.3184 359.206 68.3184ZM359.24 100.81L355.712 95.1043L359.167 89.3832L362.697 95.0876L359.24 100.81V100.81ZM372.252 101.882C371.258 101.882 370.45 101.079 370.45 100.088C370.45 99.0968 371.258 98.2938 372.252 98.2938C373.248 98.2938 374.054 99.0968 374.054 100.088C374.054 101.079 373.248 101.882 372.252 101.882ZM373.253 94.1555C372.259 94.1555 371.452 93.3525 371.452 92.3614C371.452 91.3703 372.259 90.5673 373.253 90.5673C374.249 90.5673 375.055 91.3703 375.055 92.3614C375.055 93.3525 374.249 94.1555 373.253 94.1555ZM395.185 98.1638C394.707 101.228 390.895 103.182 386.669 102.529C382.445 101.876 379.408 98.8607 379.886 95.7981C380.365 92.733 384.176 90.7786 388.401 91.4325C392.626 92.0855 395.663 95.0996 395.185 98.1638ZM402.885 106.913C401.89 106.913 401.083 106.11 401.083 105.119C401.083 104.128 401.89 103.325 402.885 103.325C403.88 103.325 404.687 104.128 404.687 105.119C404.687 106.11 403.88 106.913 402.885 106.913ZM404.086 99.5377C403.091 99.5377 402.284 98.7348 402.284 97.7436C402.284 96.7525 403.091 95.9496 404.086 95.9496C405.082 95.9496 405.888 96.7525 405.888 97.7436C405.888 98.7348 405.082 99.5377 404.086 99.5377ZM413.707 107.443L412.489 103.148L415.773 100.088L416.991 104.382L413.707 107.443ZM422.079 78.3301L421.291 75.5497L423.417 73.5675L424.206 76.3479L422.079 78.3301Z" fill="#FF0000"/>
<path d="M359.208 125.452C386.134 125.452 407.962 121.748 407.962 117.179C407.962 112.611 386.134 108.907 359.208 108.907C332.282 108.907 310.454 112.611 310.454 117.179C310.454 121.748 332.282 125.452 359.208 125.452Z" fill="#FF0000"/>
<path d="M306.445 58.4039L304.32 56.0181C328.082 35.0322 348.468 33.4822 349.325 33.4264L350.353 33.3594L350.841 34.2628C354.821 41.6416 355.663 50.5785 355.696 50.9557L352.506 51.2403C352.498 51.1582 351.755 43.3424 348.51 36.7275C344.139 37.3366 326.379 40.798 306.445 58.4039V58.4039Z" fill="#FF0000"/>
<path d="M346.359 32.2264C348.275 32.2264 349.829 30.6795 349.829 28.7714C349.829 26.8633 348.275 25.3164 346.359 25.3164C344.442 25.3164 342.888 26.8633 342.888 28.7714C342.888 30.6795 344.442 32.2264 346.359 32.2264Z" fill="#FF0000"/>
<path d="M337.416 34.2645C339.21 34.2645 340.664 32.8169 340.664 31.0312C340.664 29.2455 339.21 27.7979 337.416 27.7979C335.623 27.7979 334.169 29.2455 334.169 31.0312C334.169 32.8169 335.623 34.2645 337.416 34.2645Z" fill="#FF0000"/>
<path d="M329.141 37.2777C330.812 37.2777 332.167 35.929 332.167 34.2653C332.167 32.6015 330.812 31.2528 329.141 31.2528C327.47 31.2528 326.115 32.6015 326.115 34.2653C326.115 35.929 327.47 37.2777 329.141 37.2777Z" fill="#FF0000"/>
<path d="M321.799 40.7327C323.347 40.7327 324.602 39.4832 324.602 37.9419C324.602 36.4006 323.347 35.1511 321.799 35.1511C320.251 35.1511 318.996 36.4006 318.996 37.9419C318.996 39.4832 320.251 40.7327 321.799 40.7327Z" fill="#FF0000"/>
<path d="M314.592 45.1613C316.017 45.1613 317.172 44.0111 317.172 42.5922C317.172 41.1733 316.017 40.0231 314.592 40.0231C313.167 40.0231 312.012 41.1733 312.012 42.5922C312.012 44.0111 313.167 45.1613 314.592 45.1613Z" fill="#FF0000"/>
<path d="M308.096 49.8577C309.398 49.8577 310.454 48.8064 310.454 47.5095C310.454 46.2126 309.398 45.1613 308.096 45.1613C306.793 45.1613 305.737 46.2126 305.737 47.5095C305.737 48.8064 306.793 49.8577 308.096 49.8577Z" fill="#FF0000"/>
<path d="M303.068 54.6866C304.248 54.6866 305.204 53.7345 305.204 52.56C305.204 51.3856 304.248 50.4335 303.068 50.4335C301.888 50.4335 300.932 51.3856 300.932 52.56C300.932 53.7345 301.888 54.6866 303.068 54.6866Z" fill="#FF0000"/>
<path d="M412.179 58.4039L414.305 56.0181C390.544 35.0322 370.157 33.4822 369.3 33.4264L368.272 33.3594L367.784 34.2628C363.805 41.6416 362.963 50.5785 362.93 50.9557L366.12 51.2403C366.128 51.1582 366.87 43.3424 370.115 36.7275C374.485 37.3366 392.246 40.798 412.179 58.4039V58.4039Z" fill="#FF0000"/>
<path d="M372.267 32.2264C374.183 32.2264 375.737 30.6795 375.737 28.7714C375.737 26.8633 374.183 25.3164 372.267 25.3164C370.35 25.3164 368.797 26.8633 368.797 28.7714C368.797 30.6795 370.35 32.2264 372.267 32.2264Z" fill="#FF0000"/>
<path d="M381.209 34.2652C383.003 34.2652 384.457 32.8173 384.457 31.0311C384.457 29.245 383.003 27.797 381.209 27.797C379.415 27.797 377.961 29.245 377.961 31.0311C377.961 32.8173 379.415 34.2652 381.209 34.2652Z" fill="#FF0000"/>
<path d="M389.484 37.2768C391.155 37.2768 392.509 35.9285 392.509 34.2652C392.509 32.6019 391.155 31.2535 389.484 31.2535C387.814 31.2535 386.459 32.6019 386.459 34.2652C386.459 35.9285 387.814 37.2768 389.484 37.2768Z" fill="#FF0000"/>
<path d="M359.203 39.0869C360.873 39.0869 362.227 37.7385 362.227 36.0753C362.227 34.412 360.873 33.0636 359.203 33.0636C357.532 33.0636 356.178 34.412 356.178 36.0753C356.178 37.7385 357.532 39.0869 359.203 39.0869Z" fill="#FF0000"/>
<path d="M396.826 40.7327C398.374 40.7327 399.629 39.4832 399.629 37.9419C399.629 36.4006 398.374 35.1511 396.826 35.1511C395.278 35.1511 394.023 36.4006 394.023 37.9419C394.023 39.4832 395.278 40.7327 396.826 40.7327Z" fill="#FF0000"/>
<path d="M404.033 45.1613C405.458 45.1613 406.614 44.0111 406.614 42.5922C406.614 41.1733 405.458 40.0231 404.033 40.0231C402.608 40.0231 401.453 41.1733 401.453 42.5922C401.453 44.0111 402.608 45.1613 404.033 45.1613Z" fill="#FF0000"/>
<path d="M359.203 45.9786C360.628 45.9786 361.784 44.8283 361.784 43.4094C361.784 41.9906 360.628 40.8403 359.203 40.8403C357.778 40.8403 356.623 41.9906 356.623 43.4094C356.623 44.8283 357.778 45.9786 359.203 45.9786Z" fill="#FF0000"/>
<path d="M410.529 49.857C411.831 49.857 412.887 48.806 412.887 47.5096C412.887 46.2131 411.831 45.1621 410.529 45.1621C409.227 45.1621 408.171 46.2131 408.171 47.5096C408.171 48.806 409.227 49.857 410.529 49.857Z" fill="#FF0000"/>
<path d="M415.557 54.6866C416.737 54.6866 417.693 53.7345 417.693 52.56C417.693 51.3856 416.737 50.4335 415.557 50.4335C414.378 50.4335 413.422 51.3856 413.422 52.56C413.422 53.7345 414.378 54.6866 415.557 54.6866Z" fill="#FF0000"/>
<path d="M359.203 51.9844C360.383 51.9844 361.339 51.0323 361.339 49.8578C361.339 48.6833 360.383 47.7312 359.203 47.7312C358.024 47.7312 357.068 48.6833 357.068 49.8578C357.068 51.0323 358.024 51.9844 359.203 51.9844Z" fill="#FF0000"/>
<path d="M360.926 16.4417V12.0267L366.554 14.4794V4.58486L360.851 7.90749L364.358 0H354.047L357.554 7.90749L351.85 4.58486V14.4794L357.478 12.0267V16.4417C354.146 17.2191 351.662 20.1909 351.662 23.7456C351.662 27.8919 355.037 31.2536 359.203 31.2536C363.367 31.2536 366.743 27.8919 366.743 23.7456C366.743 20.1901 364.259 17.2191 360.926 16.4417V16.4417ZM358.402 18.8043V22.7911L355.377 21.1964L358.402 18.8043ZM354.895 26.8513C354.895 26.8513 359.224 25.1832 363.176 28.0538C363.176 28.0538 356.722 31.2376 354.895 26.8513V26.8513ZM360.983 22.7911V18.8043L363.977 20.7977L360.983 22.7911Z" fill="#FF0000"/>
<path d="M280.483 161.152L291.655 128.898H297.294L282.792 168H278.227L263.752 128.898H269.365L280.483 161.152ZM308.09 168H302.934V128.898H308.09V168ZM317.543 168V128.898H328.581C331.983 128.898 334.991 129.65 337.604 131.154C340.218 132.658 342.233 134.798 343.647 137.573C345.079 140.348 345.804 143.535 345.822 147.133V149.631C345.822 153.319 345.106 156.551 343.674 159.326C342.259 162.101 340.227 164.231 337.578 165.717C334.946 167.203 331.875 167.964 328.366 168H317.543ZM322.7 133.142V163.784H328.125C332.099 163.784 335.188 162.548 337.39 160.078C339.61 157.607 340.72 154.089 340.72 149.523V147.241C340.72 142.801 339.672 139.354 337.578 136.901C335.501 134.431 332.547 133.177 328.715 133.142H322.7ZM376.115 151.054H360.646V161.528H378.801V168H352.59V128.898H378.747V135.424H360.646V144.743H376.115V151.054ZM415.646 149.335C415.646 153.185 414.966 156.56 413.605 159.46C412.245 162.36 410.293 164.598 407.751 166.174C405.227 167.749 402.326 168.537 399.05 168.537C395.809 168.537 392.918 167.758 390.375 166.201C387.833 164.643 385.864 162.423 384.467 159.541C383.071 156.64 382.364 153.31 382.346 149.55V147.617C382.346 143.767 383.035 140.384 384.414 137.465C385.81 134.529 387.771 132.282 390.295 130.725C392.837 129.149 395.738 128.361 398.996 128.361C402.255 128.361 405.146 129.149 407.67 130.725C410.213 132.282 412.173 134.529 413.552 137.465C414.948 140.384 415.646 143.758 415.646 147.59V149.335ZM407.482 147.563C407.482 143.463 406.748 140.348 405.28 138.217C403.812 136.087 401.717 135.021 398.996 135.021C396.293 135.021 394.207 136.078 392.739 138.19C391.271 140.285 390.528 143.365 390.51 147.429V149.335C390.51 153.328 391.244 156.425 392.712 158.627C394.18 160.83 396.293 161.931 399.05 161.931C401.753 161.931 403.83 160.874 405.28 158.762C406.73 156.631 407.465 153.534 407.482 149.47V147.563ZM441.777 157.741C441.777 156.219 441.24 155.056 440.166 154.25C439.091 153.426 437.158 152.567 434.365 151.672C431.572 150.759 429.361 149.864 427.731 148.986C423.291 146.587 421.071 143.356 421.071 139.292C421.071 137.179 421.662 135.299 422.844 133.652C424.043 131.987 425.753 130.689 427.973 129.758C430.211 128.827 432.718 128.361 435.493 128.361C438.286 128.361 440.774 128.872 442.958 129.892C445.143 130.895 446.835 132.318 448.034 134.162C449.252 136.006 449.86 138.101 449.86 140.446H441.804C441.804 138.656 441.24 137.268 440.112 136.284C438.984 135.281 437.399 134.78 435.358 134.78C433.389 134.78 431.858 135.201 430.766 136.042C429.674 136.866 429.128 137.958 429.128 139.318C429.128 140.59 429.764 141.655 431.035 142.514C432.324 143.374 434.213 144.179 436.701 144.931C441.285 146.31 444.624 148.02 446.718 150.061C448.813 152.102 449.86 154.644 449.86 157.688C449.86 161.071 448.58 163.73 446.02 165.664C443.46 167.579 440.013 168.537 435.681 168.537C432.673 168.537 429.934 167.991 427.463 166.899C424.992 165.789 423.103 164.276 421.796 162.36C420.507 160.445 419.863 158.225 419.863 155.7H427.946C427.946 160.015 430.524 162.172 435.681 162.172C437.596 162.172 439.091 161.787 440.166 161.018C441.24 160.23 441.777 159.138 441.777 157.741Z" fill="white"/>
</svg>
