<svg width="51" height="51" viewBox="0 0 51 51" fill="none" xmlns="http://www.w3.org/2000/svg">
<path d="M25.5083 0C14.8623 0 11.7488 0.0109855 11.1435 0.0612052C8.9588 0.242859 7.59931 0.586942 6.11824 1.32454C4.97684 1.89148 4.07666 2.54865 3.18825 3.46986C1.57029 5.14987 0.589702 7.21672 0.23473 9.67356C0.0621473 10.8663 0.0119413 11.1095 0.00174326 17.2018C-0.00217908 19.2326 0.00174326 21.9052 0.00174326 25.49C0.00174326 36.1303 0.0135103 39.2415 0.0645007 39.8457C0.241006 41.9722 0.574405 43.3101 1.28043 44.7736C2.62971 47.5749 5.20669 49.6778 8.24258 50.4625C9.29377 50.7332 10.4548 50.8823 11.9453 50.9529C12.5768 50.9804 19.0133 51 25.4538 51C31.8943 51 38.3348 50.9922 38.9506 50.9608C40.6764 50.8796 41.6786 50.745 42.7866 50.4586C45.8421 49.67 48.372 47.5984 49.7488 44.7579C50.4411 43.3297 50.7921 41.9408 50.951 39.9254C50.9855 39.486 51 32.4799 51 25.4833C51 18.4855 50.9843 11.4924 50.9498 11.053C50.789 9.00501 50.4379 7.62789 49.7233 6.17231C49.1369 4.98077 48.4858 4.09094 47.5405 3.1811C45.8535 1.56936 43.7903 0.588511 41.3318 0.233835C40.1406 0.0615975 39.9033 0.0105932 33.808 0H25.5083Z" fill="url(#paint0_radial)"/>
<path d="M25.5083 0C14.8623 0 11.7488 0.0109855 11.1435 0.0612052C8.9588 0.242859 7.59931 0.586942 6.11824 1.32454C4.97684 1.89148 4.07666 2.54865 3.18825 3.46986C1.57029 5.14987 0.589702 7.21672 0.23473 9.67356C0.0621473 10.8663 0.0119413 11.1095 0.00174326 17.2018C-0.00217908 19.2326 0.00174326 21.9052 0.00174326 25.49C0.00174326 36.1303 0.0135103 39.2415 0.0645007 39.8457C0.241006 41.9722 0.574405 43.3101 1.28043 44.7736C2.62971 47.5749 5.20669 49.6778 8.24258 50.4625C9.29377 50.7332 10.4548 50.8823 11.9453 50.9529C12.5768 50.9804 19.0133 51 25.4538 51C31.8943 51 38.3348 50.9922 38.9506 50.9608C40.6764 50.8796 41.6786 50.745 42.7866 50.4586C45.8421 49.67 48.372 47.5984 49.7488 44.7579C50.4411 43.3297 50.7921 41.9408 50.951 39.9254C50.9855 39.486 51 32.4799 51 25.4833C51 18.4855 50.9843 11.4924 50.9498 11.053C50.789 9.00501 50.4379 7.62789 49.7233 6.17231C49.1369 4.98077 48.4858 4.09094 47.5405 3.1811C45.8535 1.56936 43.7903 0.588511 41.3318 0.233835C40.1406 0.0615975 39.9033 0.0105932 33.808 0H25.5083Z" fill="url(#paint1_radial)"/>
<path d="M25.4965 6.66992C20.3834 6.66992 19.7417 6.69229 17.7334 6.7837C15.7291 6.87551 14.361 7.19291 13.1639 7.65862C11.9256 8.13963 10.8752 8.78307 9.82874 9.83023C8.78147 10.877 8.13821 11.9277 7.65576 13.1659C7.189 14.3637 6.87129 15.7326 6.78108 17.7367C6.69126 19.7455 6.66772 20.3877 6.66772 25.5023C6.66772 30.6168 6.69047 31.2568 6.78147 33.2655C6.87365 35.2704 7.19096 36.6389 7.65615 37.8363C8.13743 39.0749 8.78069 40.1256 9.82756 41.1724C10.8736 42.2199 11.9241 42.8649 13.1615 43.346C14.3594 43.8117 15.7279 44.1291 17.7319 44.2209C19.7401 44.3123 20.3814 44.3346 25.4942 44.3346C30.6077 44.3346 31.2475 44.3123 33.2557 44.2209C35.26 44.1291 36.6297 43.8117 37.8276 43.346C39.0655 42.8649 40.1143 42.2199 41.1604 41.1724C42.2076 40.1256 42.8509 39.0749 43.3334 37.8367C43.7962 36.6389 44.1139 35.27 44.208 33.2659C44.2983 31.2571 44.3218 30.6168 44.3218 25.5023C44.3218 20.3877 44.2983 19.7459 44.208 17.7371C44.1139 15.7322 43.7962 14.3637 43.3334 13.1663C42.8509 11.9277 42.2076 10.877 41.1604 9.83023C40.1131 8.78268 39.0659 8.13924 37.8264 7.65862C36.6262 7.19291 35.2573 6.87551 33.2529 6.7837C31.2447 6.69229 30.6054 6.66992 25.4906 6.66992H25.4965ZM23.8076 10.0637C24.3088 10.0629 24.8682 10.0637 25.4965 10.0637C30.5234 10.0637 31.1192 10.0817 33.1043 10.172C34.9399 10.2559 35.9362 10.5627 36.5999 10.8205C37.4785 11.1618 38.1049 11.5699 38.7634 12.229C39.4224 12.8881 39.8303 13.5159 40.1723 14.3947C40.43 15.0578 40.7372 16.0543 40.8207 17.8905C40.9109 19.8757 40.9305 20.4721 40.9305 25.498C40.9305 30.5239 40.9109 31.1202 40.8207 33.1055C40.7368 34.9416 40.43 35.9382 40.1723 36.6012C39.8311 37.4801 39.4224 38.1058 38.7634 38.7646C38.1045 39.4237 37.4789 39.8317 36.5999 40.1731C35.937 40.432 34.9399 40.7381 33.1043 40.822C31.1196 40.9123 30.5234 40.9319 25.4965 40.9319C20.4693 40.9319 19.8735 40.9123 17.8888 40.822C16.0531 40.7373 15.0568 40.4305 14.3928 40.1727C13.5142 39.8314 12.8866 39.4233 12.2276 38.7642C11.5687 38.1051 11.1608 37.4789 10.8187 36.5996C10.561 35.9366 10.2539 34.94 10.1704 33.1039C10.0802 31.1186 10.0621 30.5223 10.0621 25.4933C10.0621 20.4642 10.0802 19.871 10.1704 17.8858C10.2543 16.0496 10.561 15.0531 10.8187 14.3892C11.16 13.5104 11.5687 12.8826 12.2276 12.2235C12.8866 11.5644 13.5142 11.1563 14.3928 10.8142C15.0564 10.5553 16.0531 10.2492 17.8888 10.1649C19.6256 10.0864 20.2986 10.0629 23.8076 10.059V10.0637ZM35.5463 13.1906C34.299 13.1906 33.2871 14.2017 33.2871 15.4497C33.2871 16.6974 34.299 17.7096 35.5463 17.7096C36.7936 17.7096 37.8056 16.6974 37.8056 15.4497C37.8056 14.2021 36.7936 13.1898 35.5463 13.1898V13.1906ZM25.4965 15.8311C20.157 15.8311 15.828 20.1613 15.828 25.5023C15.828 30.8432 20.157 35.1715 25.4965 35.1715C30.836 35.1715 35.1635 30.8432 35.1635 25.5023C35.1635 20.1613 30.8356 15.8311 25.4961 15.8311H25.4965ZM25.4965 19.2248C28.9623 19.2248 31.7723 22.0352 31.7723 25.5023C31.7723 28.969 28.9623 31.7797 25.4965 31.7797C22.0303 31.7797 19.2208 28.969 19.2208 25.5023C19.2208 22.0352 22.0303 19.2248 25.4965 19.2248Z" fill="white"/>
<defs>
<radialGradient id="paint0_radial" cx="0" cy="0" r="1" gradientUnits="userSpaceOnUse" gradientTransform="translate(13.5469 54.9281) rotate(-90) scale(50.5448 47.0106)">
<stop stop-color="#FFDD55"/>
<stop offset="0.1" stop-color="#FFDD55"/>
<stop offset="0.5" stop-color="#FF543E"/>
<stop offset="1" stop-color="#C837AB"/>
</radialGradient>
<radialGradient id="paint1_radial" cx="0" cy="0" r="1" gradientUnits="userSpaceOnUse" gradientTransform="translate(-8.54277 3.67395) rotate(78.6806) scale(22.5937 93.1323)">
<stop stop-color="#3771C8"/>
<stop offset="0.128" stop-color="#3771C8"/>
<stop offset="1" stop-color="#6600FF" stop-opacity="0"/>
</radialGradient>
</defs>
</svg>
