<svg width="183" height="183" viewBox="0 0 183 183" fill="none" xmlns="http://www.w3.org/2000/svg">
<g clip-path="url(#clip0)">
<path d="M145.2 0H40.4C16.2 0 0 18.5 0 46.1V140.9C0 167.3 16.5 182.5 45.3 182.5H141.7C164.5 182.5 182.4 164 182.4 140.4V45C182.5 17.2 163.2 0 145.2 0ZM17.4 17.1V45.7C17.4 47.8 19.1 49.5 21.2 49.5C23.3 49.5 25 47.8 25 45.7V11.4C25 11.3 25 11.2 25 11.2C26.6 10.3 28.4 9.6 30.3 9.1V45.7C30.3 47.8 32 49.5 34.1 49.5C36.2 49.5 37.9 47.8 37.9 45.7V8.6C37.9 8.3 37.9 8 37.8 7.7C38.7 7.6 39.5 7.6 40.4 7.6H43.2C43.1 7.9 43.1 8.2 43.1 8.5V45.6C43.1 47.7 44.8 49.4 46.9 49.4C49 49.4 50.7 47.7 50.7 45.6V8.6C50.7 8.3 50.6 8 50.6 7.7H145.3C159.6 7.7 174.9 22 174.9 45.1V56.8H126C117.5 47.1 105.1 41 91.2 41C77.1 41 64.5 47.3 56 57.2V56.9H7.6V46.1C7.6 35.9 10.4 24.7 17.4 17.1ZM91.2 48.5C112.5 48.5 129.8 65.8 129.8 87.1C129.8 108.4 112.5 125.8 91.2 125.8C69.9 125.8 52.6 108.5 52.6 87.1C52.6 65.8 69.9 48.5 91.2 48.5Z" fill="#E52421"/>
<path d="M91.2016 116.3C107.302 116.3 120.302 103.3 120.302 87.2C120.302 71.1 107.302 58 91.2016 58C75.1016 58 62.1016 71 62.1016 87.2C62.1016 103.2 75.1016 116.3 91.2016 116.3ZM91.2016 72.5C99.3016 72.5 105.802 79 105.802 87.1C105.802 95.2 99.3016 101.7 91.2016 101.7C83.1016 101.7 76.6016 95.2 76.6016 87.1C76.7016 79.1 83.2016 72.5 91.2016 72.5Z" fill="#E52421"/>
<path d="M136.298 46.9H148.698C153.298 46.9 157.098 43.2 157.098 38.5V26.1C157.098 21.5 153.398 17.7 148.698 17.7H136.298C131.698 17.7 127.898 21.4 127.898 26.1V38.5C127.998 43.1 131.698 46.9 136.298 46.9Z" fill="#E52421"/>
</g>
<defs>
<clipPath id="clip0">
<rect width="182.5" height="182.5" fill="white"/>
</clipPath>
</defs>
</svg>
