<svg width="59" height="52" viewBox="0 0 59 52" fill="none" xmlns="http://www.w3.org/2000/svg">
<path d="M0 6.16307V11.2129C2.77434 9.71593 6.06123 8.84672 9.78657 8.84672C22.5856 8.84672 30.4359 19.3949 28.9463 30.5163H0V35.2806C1.45283 38.8792 4.72082 41.4929 10.0227 41.4929C15.206 41.4929 18.3452 39.4129 19.915 35.3232H28.3939C26.4326 43.4297 18.8955 47.9509 10.0227 47.9509C6.15168 47.9509 2.79478 47.1962 0 45.8292V45.8374C0 49.2413 2.88267 52 6.43581 52H52.5627C55.6267 52 58.1859 49.9482 58.8355 47.2039C56.3504 47.7177 53.6624 47.9509 51.4006 47.9509C41.1909 47.9509 33.5777 43.7877 33.4188 35.0345H42.3714C42.8405 39.771 46.7682 41.4909 51.558 41.4909C53.7687 41.4909 57.0607 41.2155 58.9995 39.8331V33.7543C56.635 31.9532 51.977 31.4195 47.316 30.4439C40.7218 29.1509 34.2839 26.9994 34.2839 19.4678C34.2839 11.3593 43.8605 8.84672 51.2437 8.84672C53.9823 8.84672 56.6294 9.19862 59 9.95019V6.16307C58.9995 2.75763 56.1148 0 52.5627 0H6.43581C2.88267 0 0 2.75763 0 6.16307Z" fill="#FF0000"/>
<path d="M0 21.2823V25.1341H19.9942C19.682 19.9672 15.8345 15.3052 9.78657 15.3052C5.13015 15.3052 1.5811 17.732 0 21.2823Z" fill="#FF0000"/>
<path d="M58.9566 20.0545C58.1721 16.1795 54.5398 15.3052 50.6146 15.3052C48.0243 15.3052 43.2324 15.8795 43.2324 19.1046C43.2324 23.1255 49.8307 23.6978 56.4244 25.0612C57.2876 25.243 58.1481 25.4439 58.9995 25.6648L58.9566 20.0545Z" fill="#FF0000"/>
</svg>
